# xmcd
#
# Track frame offsets:
#	150
#	4200
#	17187
#	27905
#	49050
#	61950
#	77250
#	98100
#	109437
#	122612
#	141140
#	158625
#	167917
#	186662
#	200150
#	212462
#	226187
#	238700
#	256500
#	269475
#
# Disc length: 3784 seconds
#
# Revision: 1
# Processed by: cddbd v1.5.2PL0 Copyright (c) Steve Scherf et al.
# Submitted via: audiograbber 1.83.01
#
DISCID=100ec614
DTITLE=E. H. King Music - E. H. King Music 012
DYEAR=2000
DGENRE=Country
TTITLE0=Intro  - Don Powell
TTITLE1=Don´t Let The Front Door Hit You  - Jess Cullison
TTITLE2=Oakie Boogie  - Jett Williams
TTITLE3=Lord Lead Me To The Promise Land  - Don Sandifer
TTITLE4=Poor White Trash  - Doyle Bates
TTITLE5=Oh My Baby  - Chuck Grammer
TTITLE6=If The Tables Were Turned  - Don Sandifer
TTITLE7=Welcome Back Angel  - Eric Todd
TTITLE8=Where Will You Be  - Don Sandifer
TTITLE9=It´s Hard To Let Her Go  - Chuck Grammer
TTITLE10=She Might Think, I Don´t Love Her Anymore - Rick Wingerter
TTITLE11=Feels Like I Could Fly Away  - The Singing Tolers
TTITLE12=Far Away Yesterday  - Phil Clarkson
TTITLE13=Sing Me A Song Freind  - Don Sandifer
TTITLE14=Never Let The Devil Get The Best Of You  - Don Tucker
TTITLE15=I´m Just A Habit  - Don Powell
TTITLE16=I´ve Heard So Much About Heaven  - Mark Worsham
TTITLE17=Thank You Jerry Springer  - Lori Gill
TTITLE18=Thank You Jerry Springer  - Kenny And Kimberly Seratt
TTITLE19=An Old Freind  - Ashley Hill
EXTD=
EXTT0=
EXTT1=
EXTT2=
EXTT3=
EXTT4=
EXTT5=
EXTT6=
EXTT7=
EXTT8=
EXTT9=
EXTT10=
EXTT11=
EXTT12=
EXTT13=
EXTT14=
EXTT15=
EXTT16=
EXTT17=
EXTT18=
EXTT19=
PLAYORDER=
